<?xml version="1.0" encoding="UTF-8"?>
<svg width="200px" height="66px" viewBox="0 0 200 66" version="1.1" xmlns="http://www.w3.org/2000/svg" xmlns:xlink="http://www.w3.org/1999/xlink">
    <title>Logo Full Color</title>
    <defs>
        <linearGradient x1="50%" y1="0%" x2="50%" y2="99.9781469%" id="linearGradient-1">
            <stop stop-color="#EEEEEE" offset="0%"></stop>
            <stop stop-color="#777777" offset="27.0486458%"></stop>
            <stop stop-color="#EEEEEE" offset="50%"></stop>
            <stop stop-color="#777777" offset="76.5599472%"></stop>
            <stop stop-color="#EEEEEE" offset="99.9781469%"></stop>
        </linearGradient>
    </defs>
    <g id="Logo-Full-Color" stroke="none" stroke-width="1" fill="none" fill-rule="evenodd">
        <path d="M13.1438583,60.5769686 C12.5031637,60.5769686 11.881868,60.4557257 11.2800106,60.2130429 C10.6878329,59.97036 10.16363,59.6255571 9.70738229,59.1790286 L10.697552,58.0287 C11.037308,58.3490571 11.4256203,58.6112571 11.8624691,58.8151029 C12.2992983,59.0092886 12.7361471,59.1062829 13.172996,59.1062829 C13.7166174,59.1062829 14.1291783,58.9947 14.410718,58.7713371 C14.692238,58.5481714 14.832998,58.2520629 14.832998,57.8832086 C14.832998,57.6890229 14.7941609,57.5240143 14.7165063,57.3879857 C14.6485511,57.2521543 14.5466086,57.1356429 14.410718,57.0386486 C14.2845071,56.9317971 14.1291783,56.8348029 13.9447511,56.7472714 C13.7700037,56.6599371 13.5758574,56.5726029 13.3622926,56.4852686 L12.0517657,55.9173 C11.8187823,55.8203057 11.5857989,55.6988657 11.3528154,55.5533743 C11.1295314,55.4076857 10.9256857,55.2330171 10.7412389,55.0291714 C10.556792,54.8253257 10.4063129,54.5873743 10.2898211,54.3155143 C10.1830486,54.0438514 10.1296623,53.7331543 10.1296623,53.38362 C10.1296623,53.0051057 10.2073169,52.6555714 10.3626457,52.3352143 C10.527674,52.0051971 10.7509383,51.7187486 11.0324583,51.4760657 C11.3139783,51.2333829 11.6488846,51.0441257 12.0371969,50.9082943 C12.4352086,50.7722657 12.8672077,50.7044486 13.3331549,50.7044486 C13.8864954,50.7044486 14.4204174,50.8160314 14.9349209,51.0391971 C15.4494243,51.2529 15.8911229,51.54408 16.2599771,51.9129343 L15.4008877,52.9905171 C15.0902497,52.7381743 14.7698926,52.53906 14.439836,52.3935686 C14.1097794,52.24788 13.7408857,52.1751343 13.3331549,52.1751343 C12.8769071,52.1751343 12.5128631,52.2770571 12.2410623,52.4809029 C11.9692417,52.6750886 11.8333314,52.9467514 11.8333314,53.2962857 C11.8333314,53.4808114 11.8721686,53.6408914 11.9498231,53.77692 C12.0371969,53.9030914 12.1488389,54.0196029 12.2847491,54.1262571 C12.4303589,54.2234486 12.5953871,54.3155143 12.779834,54.4030457 C12.9642809,54.48072 13.1535774,54.5581971 13.3477237,54.6358714 L14.6436817,55.1746629 C14.9252017,55.2911743 15.1824534,55.4272029 15.4154369,55.5823543 C15.6484203,55.7377029 15.8473571,55.9173 16.0123657,56.1211457 C16.1872314,56.3249914 16.3230629,56.5629429 16.4202543,56.8348029 C16.5172486,57.0968057 16.5657457,57.4025743 16.5657457,57.7521086 C16.5657457,58.14048 16.4880714,58.5044057 16.3327229,58.84428 C16.1775714,59.1839571 15.94928,59.4847971 15.6484203,59.7469971 C15.3572009,59.99934 14.9980263,60.2031857 14.5708769,60.3585343 C14.1534663,60.5042229 13.6777803,60.5769686 13.1438583,60.5769686 Z M32.0434314,60.5769686 C31.4222343,60.5769686 30.8542657,60.4653857 30.3397229,60.2420229 C29.82518,60.0091971 29.38358,59.6789829 29.0147257,59.2519714 C28.6458714,58.8151029 28.3594229,58.2909 28.1555771,57.6793629 C27.9517314,57.0676286 27.8498086,56.3736857 27.8498086,55.5969429 C27.8498086,54.8300571 27.9517314,54.1457743 28.1555771,53.5438971 C28.3594229,52.9321629 28.6458714,52.4178171 29.0147257,52.0002686 C29.38358,51.5829171 29.82518,51.26256 30.3397229,51.0391971 C30.8542657,50.8160314 31.4222343,50.7044486 32.0434314,50.7044486 C32.6646286,50.7044486 33.2325971,50.8160314 33.74714,51.0391971 C34.2616829,51.26256 34.7032829,51.5829171 35.0721371,52.0002686 C35.4508486,52.4178171 35.7420286,52.9321629 35.9458743,53.5438971 C36.14972,54.1457743 36.2516429,54.8300571 36.2516429,55.5969429 C36.2516429,56.3736857 36.14972,57.0676286 35.9458743,57.6793629 C35.7420286,58.2909 35.4508486,58.8151029 35.0721371,59.2519714 C34.7032829,59.6789829 34.2616829,60.0091971 33.74714,60.2420229 C33.2325971,60.4653857 32.6646286,60.5769686 32.0434314,60.5769686 Z M32.0434314,59.1062829 C32.4219457,59.1062829 32.76182,59.0238771 33.06266,58.8586714 C33.3636971,58.6936629 33.6209686,58.4608371 33.8344743,58.1598 C34.04798,57.8491029 34.2131857,57.4802486 34.3295,57.0532371 C34.4460114,56.6163686 34.5043657,56.1310029 34.5043657,55.5969429 C34.5043657,54.5292171 34.2810029,53.6943171 33.8344743,53.09244 C33.3976057,52.4809029 32.8006571,52.1751343 32.0434314,52.1751343 C31.2862057,52.1751343 30.6843286,52.4809029 30.2378,53.09244 C29.8009314,53.6943171 29.5824971,54.5292171 29.5824971,55.5969429 C29.5824971,56.1310029 29.6408514,56.6163686 29.7573629,57.0532371 C29.8738743,57.4802486 30.0388829,57.8491029 30.2523886,58.1598 C30.4658943,58.4608371 30.7231657,58.6936629 31.0242029,58.8586714 C31.3250429,59.0238771 31.6649171,59.1062829 32.0434314,59.1062829 Z M48.20402,60.4023 L48.20402,50.8791171 L49.89314,50.8791171 L49.89314,58.9751829 L53.8539371,58.9751829 L53.8539371,60.4023 L48.20402,60.4023 Z M68.64458,60.5769686 C68.0913971,60.5769686 67.5914429,60.4992943 67.1449143,60.3439457 C66.7080457,60.1789371 66.3293343,59.9216657 66.0089771,59.5723286 C65.6984771,59.2227943 65.4557943,58.7762657 65.2809286,58.2325457 C65.11592,57.6793629 65.0335143,57.0094714 65.0335143,56.2230686 L65.0335143,50.8791171 L66.7226343,50.8791171 L66.7226343,56.3541686 C66.7226343,56.8687114 66.7662029,57.30558 66.8535371,57.6647743 C66.9507286,58.0141114 67.0818286,58.2956314 67.2468371,58.5093343 C67.4215057,58.72284 67.6253514,58.8781886 67.8583743,58.9751829 C68.0913971,59.0625171 68.3534,59.1062829 68.64458,59.1062829 C68.9359571,59.1062829 69.2028886,59.0625171 69.4455714,58.9751829 C69.6882543,58.8781886 69.8970286,58.72284 70.0716971,58.5093343 C70.2463657,58.2956314 70.3823943,58.0141114 70.4793886,57.6647743 C70.57658,57.30558 70.6250771,56.8687114 70.6250771,56.3541686 L70.6250771,50.8791171 L72.2412543,50.8791171 L72.2412543,56.2230686 C72.2412543,57.0094714 72.1588486,57.6793629 71.99384,58.2325457 C71.8288314,58.7762657 71.5861486,59.2227943 71.2657914,59.5723286 C70.9550943,59.9216657 70.57658,60.1789371 70.1298543,60.3439457 C69.6931829,60.4992943 69.19796,60.5769686 68.64458,60.5769686 Z M86.5883257,60.4023 L86.5883257,52.3060371 L83.8362114,52.3060371 L83.8362114,50.8791171 L91.02956,50.8791171 L91.02956,52.3060371 L88.2774457,52.3060371 L88.2774457,60.4023 L86.5883257,60.4023 Z M102.662566,60.4023 L102.662566,50.8791171 L104.351686,50.8791171 L104.351686,60.4023 L102.662566,60.4023 Z M120.518189,60.5769686 C119.896991,60.5769686 119.329023,60.4653857 118.81448,60.2420229 C118.299937,60.0091971 117.858337,59.6789829 117.489483,59.2519714 C117.120629,58.8151029 116.83418,58.2909 116.630334,57.6793629 C116.426489,57.0676286 116.324566,56.3736857 116.324566,55.5969429 C116.324566,54.8300571 116.426489,54.1457743 116.630334,53.5438971 C116.83418,52.9321629 117.120629,52.4178171 117.489483,52.0002686 C117.858337,51.5829171 118.299937,51.26256 118.81448,51.0391971 C119.329023,50.8160314 119.896991,50.7044486 120.518189,50.7044486 C121.139583,50.7044486 121.707354,50.8160314 122.221897,51.0391971 C122.73644,51.26256 123.17804,51.5829171 123.547091,52.0002686 C123.925606,52.4178171 124.216786,52.9321629 124.420631,53.5438971 C124.624477,54.1457743 124.7264,54.8300571 124.7264,55.5969429 C124.7264,56.3736857 124.624477,57.0676286 124.420631,57.6793629 C124.216786,58.2909 123.925606,58.8151029 123.547091,59.2519714 C123.17804,59.6789829 122.73644,60.0091971 122.221897,60.2420229 C121.707354,60.4653857 121.139583,60.5769686 120.518189,60.5769686 Z M120.518189,59.1062829 C120.8969,59.1062829 121.236577,59.0238771 121.537614,58.8586714 C121.838454,58.6936629 122.095726,58.4608371 122.309231,58.1598 C122.522934,57.8491029 122.687943,57.4802486 122.804454,57.0532371 C122.920769,56.6163686 122.979123,56.1310029 122.979123,55.5969429 C122.979123,54.5292171 122.75576,53.6943171 122.309231,53.09244 C121.872363,52.4809029 121.275414,52.1751343 120.518189,52.1751343 C119.760963,52.1751343 119.159086,52.4809029 118.712557,53.09244 C118.275689,53.6943171 118.057254,54.5292171 118.057254,55.5969429 C118.057254,56.1310029 118.115609,56.6163686 118.23212,57.0532371 C118.348631,57.4802486 118.51364,57.8491029 118.727146,58.1598 C118.940651,58.4608371 119.197923,58.6936629 119.49896,58.8586714 C119.7998,59.0238771 120.139674,59.1062829 120.518189,59.1062829 Z M136.678974,60.4023 L136.678974,50.8791171 L138.411663,50.8791171 L141.382211,56.2376571 L142.357871,58.2617229 L142.416029,58.2617229 C142.377191,57.7666971 142.328694,57.2375657 142.270537,56.6745257 C142.221843,56.1018257 142.197594,55.5484457 142.197594,55.0145829 L142.197594,50.8791171 L143.813969,50.8791171 L143.813969,60.4023 L142.081083,60.4023 L139.110731,55.04376 L138.135071,53.0196943 L138.076717,53.0196943 C138.115554,53.52438 138.15932,54.0535114 138.207817,54.6068914 C138.265974,55.1600743 138.295151,55.7037943 138.295151,56.2376571 L138.295151,60.4023 L136.678974,60.4023 Z M159.063363,60.5769686 C158.422649,60.5769686 157.801451,60.4557257 157.199574,60.2130429 C156.607357,59.97036 156.083154,59.6255571 155.626966,59.1790286 L156.617017,58.0287 C156.956891,58.3490571 157.345066,58.6112571 157.781934,58.8151029 C158.218803,59.0092886 158.655671,59.1062829 159.09254,59.1062829 C159.636063,59.1062829 160.048683,58.9947 160.330203,58.7713371 C160.611723,58.5481714 160.752483,58.2520629 160.752483,57.8832086 C160.752483,57.6890229 160.713646,57.5240143 160.635971,57.3879857 C160.568154,57.2521543 160.466231,57.1356429 160.330203,57.0386486 C160.204031,56.9317971 160.048683,56.8348029 159.864354,56.7472714 C159.689489,56.6599371 159.495303,56.5726029 159.281797,56.4852686 L157.971389,55.9173 C157.738366,55.8203057 157.505343,55.6988657 157.27232,55.5533743 C157.049154,55.4076857 156.845309,55.2330171 156.660783,55.0291714 C156.476257,54.8253257 156.325837,54.5873743 156.209326,54.3155143 C156.102671,54.0438514 156.049246,53.7331543 156.049246,53.38362 C156.049246,53.0051057 156.12692,52.6555714 156.282269,52.3352143 C156.447277,52.0051971 156.670443,51.7187486 156.951963,51.4760657 C157.233483,51.2333829 157.568429,51.0441257 157.9568,50.9082943 C158.354831,50.7722657 158.786771,50.7044486 159.25262,50.7044486 C159.806,50.7044486 160.339863,50.8160314 160.854406,51.0391971 C161.368949,51.2529 161.810746,51.54408 162.1796,51.9129343 L161.320451,52.9905171 C161.009754,52.7381743 160.689397,52.53906 160.35938,52.3935686 C160.029363,52.24788 159.660509,52.1751343 159.25262,52.1751343 C158.796431,52.1751343 158.432506,52.2770571 158.160646,52.4809029 C157.888786,52.6750886 157.752954,52.9467514 157.752954,53.2962857 C157.752954,53.4808114 157.791791,53.6408914 157.869466,53.77692 C157.9568,53.9030914 158.068383,54.0196029 158.204214,54.1262571 C158.349903,54.2234486 158.514911,54.3155143 158.699437,54.4030457 C158.883766,54.48072 159.073023,54.5581971 159.267209,54.6358714 L160.563226,55.1746629 C160.844746,55.2911743 161.102017,55.4272029 161.33504,55.5823543 C161.568063,55.7377029 161.76698,55.9173 161.931989,56.1211457 C162.106657,56.3249914 162.242686,56.5629429 162.33968,56.8348029 C162.436871,57.0968057 162.485369,57.4025743 162.485369,57.7521086 C162.485369,58.14048 162.407694,58.5044057 162.252346,58.84428 C162.096997,59.1839571 161.868903,59.4847971 161.568063,59.7469971 C161.276686,59.99934 160.917491,60.2031857 160.49048,60.3585343 C160.072931,60.5042229 159.597226,60.5769686 159.063363,60.5769686 Z" id="Shape" fill="#000000" fill-rule="nonzero"></path>
        <path d="M17.0312,45.9209743 C14.9425109,45.9209743 12.790598,45.7153543 10.5753826,45.3039171 C8.39182829,44.89248 6.84118143,44.4337286 5.92346171,43.9274657 L5.92346171,35.7627943 L8.48677229,35.7627943 L10.2430983,40.6994486 C11.0342523,41.6171486 12.0310854,42.2501743 13.2336371,42.5983286 C14.4678106,42.9462857 15.87614,43.1203629 17.4584086,43.1203629 C19.2620686,43.1203629 20.7810543,42.6298714 22.0153657,41.6488886 C23.28122,40.6679057 23.9140486,39.2437457 23.9140486,37.3766057 C23.9140486,35.88936 23.28122,34.5759943 22.0153657,33.4367057 C20.7810543,32.2658743 18.9773943,31.0159886 16.6039914,29.6868514 C14.2304703,28.4209971 12.3317283,27.29748 10.9076669,26.3164971 C9.48360543,25.3355143 8.31271486,24.1962257 7.39499514,22.8988286 C6.47725571,21.5696914 6.018386,20.0347371 6.018386,18.29436 C6.018386,16.3006543 6.58801057,14.6075914 7.72725971,13.2151714 C8.89817,11.8227514 10.3696837,10.7784857 12.14186,10.0821771 C13.945658,9.38606571 15.7811171,9.03791143 17.6482571,9.03791143 C19.54694,9.03791143 21.4298514,9.21198857 23.2969914,9.56014286 C25.1956743,9.9081 26.5723229,10.3037657 27.42674,10.7467457 L27.42674,17.6771057 L24.7209543,17.6771057 L22.8222714,13.0728343 C22.3475514,12.6613971 21.6197,12.3447857 20.6387171,12.1233943 C19.6892771,11.8702629 18.7082943,11.7436971 17.6957686,11.7436971 C16.1133029,11.7436971 14.68934,12.1709057 13.4235054,13.0253229 C12.1576709,13.848 11.5247634,15.1138543 11.5247634,16.8226886 C11.5247634,18.49998 12.2051429,19.9399114 13.5659214,21.1424829 C14.9583217,22.3448571 17.0627429,23.6899629 19.8793229,25.1772086 C21.9045714,26.2532143 23.5976343,27.2659371 24.9583143,28.21518 C26.3191914,29.16462 27.4425114,30.28794 28.3286686,31.5855343 C29.2148257,32.8513886 29.6578057,34.3070914 29.6578057,35.9526429 C29.6578057,39.2122029 28.4552343,41.6964 26.0500914,43.4052343 C23.6766886,45.0825257 20.6704571,45.9209743 17.0312,45.9209743 Z M42.6753457,19.4334514 L50.4601229,19.4334514 L50.4601229,22.8038057 L42.8176829,22.8038057 L42.8176829,33.3893914 C42.8176829,35.8260771 42.8651943,37.6139657 42.9602171,38.7532543 C43.0867829,39.8925429 43.3241429,40.74696 43.6721,41.3165057 C44.0519943,41.8545086 44.6690514,42.1236086 45.5234686,42.1236086 C46.1880371,42.1236086 46.9949429,42.0128143 47.9443829,41.7912257 C48.9253657,41.5698343 49.6057057,41.3324743 49.9856,41.0793429 L50.9348429,43.3577229 C50.1437086,44.1488571 48.9571057,44.7818829 47.37464,45.2564057 C45.8241114,45.6995829 44.3366686,45.9209743 42.9127057,45.9209743 C40.88726,45.9209743 39.4157857,45.3356571 38.4980857,44.1646286 C37.5803857,42.9937971 37.1214371,41.1426257 37.1214371,38.6109171 L37.1214371,22.8038057 L33.6087457,22.8038057 L33.6087457,20.7625886 C35.0961886,20.3828914 36.0771714,20.09802 36.5518914,19.9081714 C37.0581543,19.68678 37.5013314,19.2753429 37.8810286,18.6740571 C38.3557486,17.8511829 39.0043486,16.0315543 39.8272229,13.2151714 L42.6753457,13.2151714 L42.6753457,19.4334514 Z M67.6742429,18.6265457 C70.7122143,18.6265457 73.0698457,19.5284743 74.7471371,21.3323314 C76.4559714,23.1361886 77.3103886,25.6677 77.3103886,28.92726 C77.3103886,30.31968 77.1995943,31.6330457 76.9782029,32.86716 L60.2216514,32.86716 C60.2849343,35.8103057 61.0285571,38.1044571 62.4527171,39.7502057 C63.90842,41.3957571 65.9654086,42.2184343 68.6236829,42.2184343 C69.7945143,42.2184343 71.0445971,42.0918686 72.3737343,41.8387371 C73.7028714,41.5538657 74.77868,41.2059086 75.6015543,40.7944714 L76.5983086,43.0728514 C75.5857829,43.9590086 74.1141114,44.6710886 72.1836886,45.2090914 C70.2534629,45.7153543 68.3388114,45.9684857 66.4401286,45.9684857 C62.5792829,45.9369429 59.5888229,44.7343714 57.4685514,42.3609686 C55.34828,39.9875657 54.2880457,36.7595486 54.2880457,32.6773114 C54.2880457,29.9874943 54.8577886,27.5823514 55.99688,25.46208 C57.1361686,23.3100686 58.7184371,21.6329743 60.7438829,20.4304029 C62.7691314,19.2278314 65.0792514,18.6265457 67.6742429,18.6265457 Z M66.5824657,21.4271571 C64.8418914,21.4271571 63.4021571,22.1392371 62.2628686,23.5633971 C61.15532,24.98736 60.4907514,27.0443486 60.2691629,29.7341657 L71.3767829,29.7341657 C71.4085229,29.3862086 71.4242943,28.8639771 71.4242943,28.1678657 C71.4242943,25.8260057 70.9180314,24.1804543 69.9053086,23.2310143 C69.2722829,22.0284429 68.1647343,21.4271571 66.5824657,21.4271571 Z M85.4368143,42.4082829 L85.4368143,24.8923371 L82.1614829,22.9461429 L82.1614829,20.9524371 L89.1868657,18.8639057 L90.5160029,19.2911143 L90.5160029,23.2310143 C91.0222657,22.1867486 92.05076,21.2057657 93.6014857,20.2880657 C95.1837543,19.3386257 96.6394571,18.8639057 97.9685943,18.8639057 C99.1711657,18.8639057 99.9463314,18.9271886 100.294486,19.0537543 L100.294486,24.75 C99.1551971,24.1804543 97.7945171,23.8955829 96.2122486,23.8955829 C94.2500857,23.8955829 92.6203057,24.3227914 91.3229086,25.1772086 L91.3229086,42.3134571 L97.4463629,42.9305143 L97.4463629,45.3514286 L82.0191457,45.3514286 L82.0191457,42.9305143 L85.4368143,42.4082829 Z M106.940566,42.4082829 L106.940566,12.1709057 L103.475189,11.1739543 L103.475189,8.65821429 L111.687371,7.66126286 L112.779149,8.13598286 L112.779149,42.3609686 L116.908897,42.9305143 L116.908897,45.3514286 L103.427874,45.3514286 L103.427874,42.9305143 L106.940566,42.4082829 Z M126.292503,6.47466 C127.463334,6.47466 128.349491,6.79107429 128.950777,7.42390286 C129.583606,8.02518857 129.90002,8.84806286 129.90002,9.89232857 C129.90002,11.06316 129.472811,12.0283714 128.618394,12.7879629 C127.763977,13.5473571 126.767223,13.9272514 125.627934,13.9272514 C124.646951,13.9272514 123.792534,13.61064 123.064683,12.9778114 C122.368374,12.3447857 122.02022,11.5221086 122.02022,10.5093857 C122.02022,9.40183714 122.463397,8.45239714 123.349357,7.66126286 C124.235514,6.87012857 125.216497,6.47466 126.292503,6.47466 Z M129.377986,19.3386257 L129.377986,42.4082829 L132.985503,42.9305143 L132.985503,45.3514286 L120.026711,45.3514286 L120.026711,42.9305143 L123.68174,42.4082829 L123.68174,25.0823829 L120.548746,22.8038057 L120.548746,21.0949714 L128.001337,18.8639057 L129.377986,19.3386257 Z M139.904231,42.4557943 L139.904231,24.8923371 L136.676214,22.9461429 L136.676214,20.9524371 L143.749109,18.8639057 L145.030734,19.2911143 L145.030734,22.6614686 C146.233306,21.5854629 147.752291,20.6835343 149.587691,19.9556829 C151.454831,19.2278314 153.195406,18.8639057 154.809217,18.8639057 C157.530774,18.8639057 159.429654,19.7183229 160.505463,21.4271571 C161.613209,23.1361886 162.166983,25.8575486 162.166983,29.5918286 L162.166983,42.4557943 L165.679674,42.9305143 L165.679674,45.3514286 L152.863023,45.3514286 L152.863023,42.9305143 L156.328203,42.4082829 L156.328203,30.4937571 C156.328203,28.6266171 156.201637,27.1709143 155.948506,26.1266486 C155.695374,25.0506429 155.220654,24.2595086 154.524543,23.7532457 C153.828234,23.2467857 152.815709,22.9936543 151.486571,22.9936543 C150.663697,22.9936543 149.714257,23.15196 148.638449,23.4683743 C147.593986,23.7847886 146.644743,24.2595086 145.790326,24.8923371 L145.790326,42.4082829 L149.018146,42.9305143 L149.018146,45.3514286 L136.866063,45.3514286 L136.866063,42.9305143 L139.904231,42.4557943 Z M181.265197,18.53172 C184.208343,18.53172 186.565974,19.18032 188.338091,20.4779143 C188.971117,19.4651914 190.379309,18.9589286 192.562863,18.9589286 L195.0788,18.9589286 L195.0788,23.2310143 L190.474134,23.2310143 C191.012137,24.30702 191.281237,25.5886457 191.281237,27.0760886 C191.281237,29.0695971 190.790746,30.7786286 189.809566,32.2025914 C188.828583,33.6267514 187.515414,34.70256 185.869666,35.4304114 C184.224114,36.12672 182.388714,36.4748743 180.363466,36.4748743 C178.717717,36.4748743 177.18296,36.2532857 175.758997,35.8103057 C175.568951,36.3165686 175.474126,36.8388 175.474126,37.3766057 C175.474126,37.9146086 175.474126,38.2152514 175.474126,38.2785343 C175.474126,39.1646914 175.711486,39.82926 176.186206,40.27224 C176.692469,40.7154171 177.483603,40.95258 178.559609,40.98432 C179.603874,41.0476029 181.534297,41.0793429 184.35068,41.0793429 C188.148243,41.0793429 190.743234,41.7279429 192.135654,43.0255371 C193.527286,44.3229343 194.225171,46.1425629 194.225171,48.4844229 C194.225171,50.3831057 193.655429,52.0128857 192.515351,53.3735657 C191.376063,54.7659857 189.793794,55.82622 187.768546,56.5540714 C185.77484,57.2819229 183.480491,57.6458486 180.8855,57.6458486 C177.562657,57.6458486 174.825329,57.1078457 172.673514,56.03184 C170.521503,54.9558343 169.445497,53.1994886 169.445497,50.7628029 C169.445497,49.4654057 169.825391,48.2470629 170.584786,47.1077743 C171.37592,46.0002257 172.309589,45.12984 173.385397,44.4970114 C172.56272,44.21214 171.961434,43.8639857 171.581737,43.4527457 C171.201843,43.0095686 170.96468,42.5665886 170.869657,42.1236086 C170.806374,41.6488886 170.774634,41.0476029 170.774634,40.3197514 C170.774634,39.6551829 171.059506,38.7849943 171.629051,37.7089886 C172.198794,36.60144 172.894906,35.68374 173.71778,34.9558886 C171.059506,33.4367057 169.730369,31.0792714 169.730369,27.8829943 C169.730369,25.8260057 170.268371,24.1012029 171.344377,22.7087829 C172.420383,21.3163629 173.828574,20.2720971 175.568951,19.5759857 C177.309526,18.8796771 179.208406,18.53172 181.265197,18.53172 Z M180.363466,21.2373086 C178.876023,21.2373086 177.689223,21.6802886 176.803263,22.5664457 C175.917106,23.4526029 175.474126,24.8132829 175.474126,26.6486829 C175.474126,28.7056714 175.917106,30.3671914 176.803263,31.6330457 C177.689223,32.8989 179.081643,33.5317286 180.980523,33.5317286 C182.657617,33.5317286 183.860189,33.0254657 184.58804,32.0127429 C185.315891,31.00002 185.679817,29.5127743 185.679817,27.5506114 C185.679817,23.3418086 183.9077,21.2373086 180.363466,21.2373086 Z M175.853823,45.0665571 C175.125971,46.11102 174.762046,47.4241886 174.762046,49.0064571 C174.762046,50.9053371 175.426614,52.3135286 176.755751,53.2312286 C178.084889,54.1806686 179.777951,54.6551914 181.83494,54.6551914 C184.240083,54.6551914 186.059711,54.2754943 187.293826,53.5161 C188.55968,52.7565086 189.192509,51.5539371 189.192509,49.9083857 C189.192509,48.8008371 189.018431,47.91468 188.670474,47.2501114 C188.32232,46.5855429 187.705263,46.0950514 186.819106,45.7786371 C185.932949,45.4622229 184.667291,45.3039171 183.021543,45.3039171 L179.698897,45.2564057 C178.053149,45.2564057 176.771523,45.1931229 175.853823,45.0665571 Z" id="Shape" fill="#000000" fill-rule="nonzero"></path>
        <path d="M180.34592,17.5499257 C183.238692,17.5499257 185.574513,18.1699885 187.358684,19.3967558 C188.044489,18.5186158 189.352057,18.0277334 191.326314,17.9808405 L191.643586,17.9771343 L194.410114,17.9771343 L194.410114,22.74922 L189.946391,22.74922 C190.388665,23.7785888 190.61196,24.9765338 190.61196,26.3442943 C190.61196,28.3939298 190.104479,30.1492823 189.096173,31.6126131 C188.089024,33.0747594 186.741291,34.1799277 185.047812,34.9288532 C183.373145,35.6374819 181.505456,35.99308 179.444189,35.99308 C177.860844,35.99308 176.378703,35.7907399 174.997569,35.3873232 C174.894734,35.7141088 174.833094,36.0477948 174.812551,36.3883268 L174.804849,36.6450086 L174.804849,37.54674 C174.804849,38.3467784 175.006291,38.9552963 175.431596,39.3523378 C175.904207,39.766056 176.647566,39.9733156 177.655454,40.0029835 C178.696993,40.0661011 180.622381,40.0975486 183.431403,40.0975486 C187.321139,40.0975486 189.963912,40.7848452 191.386803,42.1108353 C192.825878,43.4517035 193.554514,45.3291649 193.554514,47.7526286 C193.554514,49.7141922 192.96445,51.3969041 191.78955,52.8002944 C190.623843,54.2248009 189.006679,55.3125832 186.935003,56.0571168 C184.916464,56.7940342 182.59374,57.1640543 179.966223,57.1640543 C176.597323,57.1640543 173.823538,56.6143047 171.64245,55.5236607 C170.520172,54.9626243 169.680896,54.2219908 169.120049,53.3065296 C168.559704,52.3918887 168.27622,51.3007277 168.27622,50.0310086 C168.27622,48.6846366 168.669282,47.4198306 169.462078,46.230667 C170.167446,45.2431869 170.983579,44.4398289 171.909059,43.81984 C171.278438,43.5536892 170.802153,43.2409019 170.472688,42.883698 C170.061508,42.4042369 169.808664,41.9231258 169.705941,41.4442486 C169.63813,40.9414349 169.605357,40.3291619 169.605357,39.5879571 C169.605357,38.8946778 169.893759,37.984447 170.487464,36.862834 C171.01373,35.8398031 171.645677,34.9751314 172.382245,34.2676645 C171.155994,33.5113127 170.226234,32.5676632 169.590168,31.439405 C168.906011,30.2258444 168.561091,28.7969844 168.561091,27.1512 C168.561091,25.0323249 169.119486,23.2578788 170.227282,21.8243199 C171.330135,20.3971573 172.772826,19.3256321 174.556818,18.6120759 C176.325766,17.9044165 178.255284,17.5499257 180.34592,17.5499257 Z M175.055354,44.6028025 C174.410494,45.5884588 174.092769,46.8134353 174.092769,48.2746629 C174.092769,50.0768721 174.714104,51.4206951 175.978518,52.2937073 C177.2729,53.2182816 178.918929,53.6735943 180.915663,53.6735943 C183.260558,53.6735943 185.038856,53.3125476 186.243547,52.5713771 C187.436553,51.8554812 188.023231,50.720904 188.023231,49.1765914 C188.023231,48.1184948 187.862497,47.2698576 187.529719,46.6342796 C187.207973,46.0203024 186.632458,45.5738967 185.815761,45.2822843 C184.949221,44.9728745 183.710982,44.8221229 182.102266,44.8221229 L182.102266,44.8221229 L178.77606,44.7747832 L178.391247,44.7735882 C177.005119,44.764805 175.892451,44.7076275 175.055354,44.6028025 Z M179.444189,20.7555143 C178.032801,20.7555143 176.902731,21.1694592 176.060762,22.0114281 C175.212977,22.8592131 174.804849,24.1662882 174.804849,25.9170857 C174.804849,27.9132087 175.228123,29.5284381 176.088789,30.7578794 C176.931324,31.961688 178.260808,32.5499343 180.061246,32.5499343 C181.63637,32.5499343 182.778862,32.0907786 183.465755,31.1350453 C184.169807,30.1554365 184.51054,28.7137857 184.51054,26.8188171 C184.51054,24.790084 184.096143,23.2613243 183.240212,22.2448842 C182.396649,21.2431316 181.126544,20.7555143 179.444189,20.7555143 Z M66.7549657,17.6447514 C69.8747577,17.6447514 72.2902345,18.5797498 74.0093523,20.4286054 C75.7568707,22.2732977 76.6411114,24.8588877 76.6411114,28.1954657 C76.6411114,29.4954801 76.5454305,30.7273275 76.3545503,31.8908814 L76.2669174,32.3853657 L59.5595928,32.3853657 C59.6574555,35.1360204 60.3725434,37.2950257 61.7206879,38.8527665 C63.1322198,40.4483864 65.1299649,41.23664 67.7044057,41.23664 C68.8606531,41.23664 70.0951259,41.1113313 71.4020575,40.862496 C72.705497,40.5830908 73.7616016,40.2432882 74.5690694,39.8397723 L74.8038493,39.7168029 L75.9803471,42.406273 C74.9424854,43.3690071 73.3949384,44.1430547 71.3278366,44.7191178 C69.3762957,45.2309713 67.4404838,45.4866914 65.518809,45.4866831 C61.5755236,45.4544667 58.5267034,44.2179334 56.3628352,41.795729 C54.206096,39.3815046 53.1187686,36.100546 53.1187686,31.9455171 C53.1187686,29.2112815 53.6996024,26.7670095 54.8566598,24.6133063 C56.0182627,22.4193462 57.6319615,20.7097066 59.6969647,19.4836486 C61.7595136,18.2589286 64.1118307,17.6447514 66.7549657,17.6447514 Z M65.6631886,20.9453629 C64.0004325,20.9453629 62.6266108,21.6279768 61.5388113,22.9877733 C60.4945614,24.3301511 59.8605385,26.25486 59.6230317,28.7525686 L59.6230317,28.7525686 L70.2254349,28.7525686 L70.2345261,28.5787932 C70.2482737,28.2739494 70.2550171,27.8930189 70.2550171,27.4360714 C70.2550171,25.1894501 69.7903546,23.5959678 68.764809,22.6156701 C68.4728092,22.0609523 68.0724918,21.6435473 67.5612844,21.3660304 C67.0402312,21.0831685 66.4068521,20.9453629 65.6631886,20.9453629 Z M16.72898,8.05611714 C18.6430661,8.05611714 20.541253,8.23160579 22.4227794,8.58244384 C24.4577899,8.95538472 25.9016675,9.38603785 26.7574629,9.86570447 L26.7574629,9.86570447 L26.7574629,17.1955086 L23.6343456,17.1955086 L21.6950792,12.4926216 C21.2436678,12.1205096 20.564186,11.8387074 19.6550368,11.6331621 C18.7263743,11.3855701 17.7668477,11.2619029 16.7764914,11.2619029 C15.2460811,11.2619029 13.8684877,11.6742972 12.6404619,12.5031482 C11.4444995,13.2804148 10.8554666,14.4799016 10.8554666,16.0910914 C10.8554666,17.6966203 11.5104308,19.07294 12.8100316,20.2214846 C14.1919801,21.4150123 16.2815284,22.748358 19.0773424,24.2246395 C21.1129224,25.3061343 22.8144624,26.3242695 24.1820816,27.2783533 C25.5687083,28.245758 26.7129381,29.3908345 27.6141949,30.710368 C28.5294446,32.0177802 28.9885286,33.5209343 28.9885286,35.2208486 C28.9885286,38.5719413 27.7465252,41.1216744 25.2750969,42.877603 C22.8637248,44.5817274 19.8107312,45.4393771 16.1119229,45.4393771 C14.0084531,45.4393771 11.8413133,45.2322658 9.6098351,44.8178037 C7.28424663,44.3798136 5.66709527,43.8839442 4.75416486,43.3405562 L4.75416486,43.3405562 L4.75416486,34.781 L7.74388212,34.781 L9.54353398,39.8393772 C10.2980297,40.7015481 11.2450422,41.2966869 12.3821785,41.6259143 C13.596554,41.9682842 14.9822744,42.1385686 16.5391314,42.1385686 C18.2802097,42.1385686 19.7483615,41.6688758 20.9429509,40.7194864 C22.1502524,39.7838795 22.7447714,38.4223559 22.7447714,36.6450086 C22.7447714,35.2258717 22.1350085,33.976308 20.9240223,32.8864734 C19.7012963,31.7264363 17.913529,30.4897561 15.5669666,29.1756443 C13.1833892,27.904374 11.2767129,26.7757565 9.84656706,25.7905823 C8.39703792,24.7920557 7.20570793,23.6319455 6.26997277,22.3090801 C5.32394181,20.9389397 4.84910886,19.3570237 4.84910886,17.5625657 C4.84910886,15.5059019 5.43973552,13.7608872 6.6166415,12.3224778 C7.81410432,10.8984582 9.31864572,9.82985683 11.1325554,9.11714778 C12.9658583,8.40965773 14.8313569,8.05611714 16.72898,8.05611714 Z M42.0060686,12.2333771 L42.0060686,18.4518543 L49.7908457,18.4518543 L49.7908457,22.3220114 L42.1484057,22.3220114 L42.1488937,33.0792243 C42.1540994,35.2921186 42.2009489,36.9323439 42.2894115,37.9938568 C42.4102626,39.0817056 42.6305302,39.9014215 42.9622952,40.4480967 C43.3007835,40.9214636 43.8546935,41.1418143 44.6041914,41.1418143 C45.2532403,41.1418143 46.0411294,41.0323619 46.9700691,40.8155647 C48.1705872,40.5446279 48.9059684,40.2580175 49.163693,39.9317487 L49.163693,39.9317487 L50.3095375,42.6814426 C49.4963284,43.5525296 48.2385582,44.2508801 46.5240391,44.7651907 C44.9496454,45.2149889 43.439255,45.4393771 41.9934286,45.4393771 C39.8709143,45.4393771 38.3406488,44.8102701 37.3820337,43.587238 C36.4388534,42.3836953 35.95216,40.4856128 35.95216,37.8791229 L35.95216,37.8791229 L35.95216,22.3220114 L32.4394686,22.3220114 L32.4394686,19.8366439 C34.0166704,19.436682 35.0506024,19.1400806 35.532447,18.9473214 C35.9982264,18.7436336 36.4017598,18.3608358 36.7452033,17.8173352 C37.2251002,16.9854874 37.8809947,15.1229838 38.720384,12.2333771 L38.720384,12.2333771 L42.0060686,12.2333771 Z M88.2704671,17.8704403 L89.8467257,18.3770781 L89.8467257,21.6153742 C90.4392992,20.820207 91.3394552,20.0604007 92.5535768,19.3419029 C94.1824506,18.3644975 95.6819955,17.8821114 97.0493171,17.8821114 C98.2973198,17.8821114 99.0996833,17.9557903 99.460623,18.0870039 L99.460623,18.0870039 L99.6252086,24.4370881 C98.4472363,23.7522425 97.0025257,23.4137886 95.2929714,23.4137886 C93.4434066,23.4137886 91.8958955,23.7999683 90.6536314,24.5817735 L90.6536314,24.5817735 L90.6536314,41.3555891 L96.7770857,41.9726463 L96.7770857,44.8696343 L80.8498686,44.8696343 L80.8498686,41.9840068 L84.2675371,41.4619726 L84.2675371,24.3029945 L80.9922057,22.3568002 L80.9922057,20.0343526 L88.2704671,17.8704403 Z M110.805445,6.67309875 L112.109871,7.24028164 L112.109871,41.4112862 L116.23962,41.9808319 L116.23962,44.8696343 L102.258597,44.8696343 L102.258597,41.9831278 L105.771289,41.4610935 L105.771289,11.6273291 L102.305911,10.6303777 L102.305911,7.70493429 L110.805445,6.67309875 Z M127.087469,17.8695299 L128.708709,18.4285941 L128.708709,41.4602586 L132.316226,41.9822929 L132.316226,44.8696343 L118.857434,44.8696343 L118.857434,41.9818895 L122.512463,41.4598552 L122.512463,24.4778935 L119.379469,22.1993164 L119.379469,20.1770568 L127.087469,17.8695299 Z M142.834364,17.8700993 L144.361457,18.3791302 L144.361457,21.387452 C145.511939,20.4489994 146.916595,19.6496554 148.577614,18.9909609 C150.477223,18.2504524 152.248278,17.8821114 153.88994,17.8821114 C156.722141,17.8821114 158.681986,18.7898682 159.795972,20.5593855 C160.922166,22.2968798 161.497706,25.0604779 161.497706,28.8600343 L161.497706,28.8600343 L161.497706,41.5055134 L165.010397,41.9802334 L165.010397,44.8696343 L151.693746,44.8696343 L151.693746,41.9835618 L155.158926,41.4615275 L155.158926,29.7619629 C155.158926,27.9201975 155.035982,26.4839318 154.785872,25.4521042 C154.54895,24.4450023 154.11126,23.6985714 153.458213,23.223628 C152.795609,22.7416832 151.829118,22.51186 150.567294,22.51186 C149.764671,22.51186 148.838876,22.667844 147.791654,22.9758418 C146.816271,23.2713288 145.92613,23.7085272 145.121049,24.2877458 L145.121049,24.2877458 L145.121049,41.4638697 L148.348869,41.985904 L148.348869,44.8696343 L135.696786,44.8696343 L135.696786,41.9847517 L138.734757,41.5100317 L138.734757,24.301931 L135.506937,22.3557367 L135.506937,20.0339951 L142.834364,17.8700993 Z M125.373226,5.49286571 C126.628289,5.49286571 127.570456,5.84393283 128.203702,6.51087281 C128.882994,7.15630588 129.230743,8.03702863 129.230743,9.16053429 C129.230743,10.4072775 128.77477,11.434405 127.865197,12.2430304 C126.963329,13.0445989 125.911184,13.4454571 124.708657,13.4454571 C123.664737,13.4454571 122.755782,13.1081968 121.977264,12.4310259 C121.228767,11.7507667 120.850943,10.8673192 120.850943,9.77759143 C120.850943,8.59854052 121.319598,7.5859264 122.263585,6.74297606 C123.199873,5.90708701 124.237219,5.49286571 125.373226,5.49286571 Z" id="Combined-Shape" stroke="#777777" stroke-width="0.5" fill="url(#linearGradient-1)" fill-rule="nonzero"></path>
    </g>
</svg>